<svg xmlns="http://www.w3.org/2000/svg" width="263.004" height="224">
    <g opacity=".041">
        <path d="M39.931 6.636a72.952 72.952 0 0 1-13.927 30.73l.819.634A73.872 73.872 0 0 0 40.934 6.859c.451-2.212.786-4.493 1.07-6.859h-1.037a77.589 77.589 0 0 1-1.036 6.636zM44.004 12.79l1.117.21a126.419 126.419 0 0 1 3.883-13h-1.172a125.526 125.526 0 0 0-3.828 12.79zM19.004 115v-1.026c-2.761 0-5.606-3.734-7.549-5.974A46.136 46.136 0 0 1 .004 84v5.046a48.084 48.084 0 0 0 10.684 19.579c1.943 2.17 4.686 6.257 8.316 6.375zM.004 63.751V67c-.016-1.077 0-2.171 0-3.249zM8.28 113l.724-.769c-4.747-4.154-7.059-10.992-9-17.231v3.556C1.769 103.889 4.116 109.325 8.28 113zM48.811 54.005a31.338 31.338 0 0 1 10.135 1.7c9.441 3.088 16.181 10.057 22.971 17.367 2.77 2.981 5.523 5.963 8.327 8.928l.76-.733c-2.8-2.947-5.557-5.929-8.344-8.911-6.756-7.31-13.648-14.449-23.394-17.656A32.342 32.342 0 0 0 48.828 53a76.278 76.278 0 0 0-11.824 1.278l.152 1.039a76.179 76.179 0 0 1 11.655-1.312z"/>
        <path d="M48.504 49.048a33.808 33.808 0 0 1 20.815 6.976c2.748 2.198 5.085 4.866 8.057 6.976l.628-.855c-2.8-2.11-5.225-4.761-8.04-6.975A34.822 34.822 0 0 0 48.504 48a30.949 30.949 0 0 0-12.5 2.5l.407.994a30.139 30.139 0 0 1 12.093-2.446zM68.797 89l.207-1.039C61.625 86.472 49.073 80.446 45.987 73l-.983.433C48.487 81.5 61.176 87.39 68.797 89zM20.11 190.683a76.312 76.312 0 0 0 13.894-13.013l-.8-.67a75.273 75.273 0 0 1-13.693 12.846A89.194 89.194 0 0 1 .004 199.895V201a91.736 91.736 0 0 0 20.106-10.317zM33.157 190.465c3.663-4.034 6.269-8.835 9.847-12.765l-.767-.7c-3.68 4.052-6.286 8.852-9.864 12.768-8.944 9.822-20.169 16.274-32.369 21.108V212c12.454-4.937 23.97-11.44 33.153-21.535zM15.104 147.76c6.036-4.915 11.951-9.983 17.9-14.966l-.678-.794c-5.949 5.068-11.864 10.135-17.881 14.966A146.833 146.833 0 0 0 .004 160.48V162a151.838 151.838 0 0 1 15.1-14.24zM28.776 176l.616-.826c-4.093-3.2-6.356-9.466-6.356-15.214a19.012 19.012 0 0 1 .616-4.939c1.864-6.884 8.02-11.927 12.329-17.537 2.213-2.927 3.623-6.231 6.023-8.744l-.732-.74c-2.562 2.7-3.977 6.058-6.106 8.829-4.176 5.49-10.483 10.584-12.5 17.9a21.427 21.427 0 0 0-.662 5.162c.017 6.075 2.329 12.615 6.772 16.109z"/>
        <path d="M24.215 173.328a17.454 17.454 0 0 1-4.177-11.728c0-6.9 3.328-14.31 6.972-19.759 1.382-2.065 2.513-4.358 3.994-6.151l-.765-.69a73.549 73.549 0 0 0-4.06 6.241c-3.728 5.552-7.175 13.052-7.175 20.359A18.526 18.526 0 0 0 23.45 174zM132.187 63.141c8.467-4.167 16.037-10.349 24.453-13.957a46.29 46.29 0 0 1 5.47-1.524 11.5 11.5 0 0 0 4.894-1.949l-.762-.711a11.632 11.632 0 0 1-4.386 1.694 47.171 47.171 0 0 0-5.622 1.558c-8.586 3.71-16.257 9.892-24.521 13.991A135.355 135.355 0 0 1 108.004 71l.271 1a135.067 135.067 0 0 0 23.912-8.859zM129.504 115.344c11.213 5.531 20.821 13.328 24.762 25.676 1.421 4.448 1.691 9.274 2.723 13.98l1.015-.24c-1.015-4.586-1.269-9.429-2.757-14.066-4.06-12.641-13.938-20.712-25.372-26.294-11.958-5.839-27.2-4.036-37.212-12.4l-.66.824c10.623 8.676 25.965 6.801 37.501 12.52z"/>
        <path d="M120.504 107.319a49.79 49.79 0 0 1 26.371 11.563c3.909 3.21 5.88 7.48 9.381 11.118l.748-.734c-3.4-3.416-5.353-7.788-9.466-11.187a50.859 50.859 0 0 0-26.885-11.8c-9.432-1.4-18.524-1.144-27.191-5.277l-.458.937c8.956 4.27 18.184 3.997 27.5 5.38zM122.917 120.483c7.087 3.599 13.049 6.86 17.193 13.517l.894-.541c-4.247-6.959-10.471-10.34-17.554-13.922-7.582-3.802-19.846-5.66-24.586-12.537l-.86.591c5.124 7.452 17.623 9.192 24.913 12.892zM178.155 149.063c7.8 0 17.023 2.646 24.066 4.177 5.725 1.254 11.821 3.273 17.783 3.76v-1.079c-5.776-.47-11.822-2.454-17.648-3.725-7.009-1.514-16.264-4.196-24.286-4.196a27.876 27.876 0 0 0-5.066.419l.236 1.062a27.057 27.057 0 0 1 4.914-.418zM176.684 144h1.462c.641 0 1.295.031 1.927.062s1.207.058 1.771.058a62.39 62.39 0 0 1 9.579.993 156.694 156.694 0 0 1 19.469 5.613c.883.3 1.872.743 2.919 1.208 2.223.988 4.523 2.009 6.351 2.009.113.009.229.013.342.013s.23 0 .344-.013l.156 1.044c-.147.013-.288.013-.422.013s-.278 0-.42-.013c-2.2-.012-4.664-1.128-6.842-2.114-1-.454-1.953-.884-2.772-1.155a152.881 152.881 0 0 0-19.331-5.561 59.55 59.55 0 0 0-9.408-.993c-.42-.012-.844-.031-1.293-.05a55.144 55.144 0 0 0-2.37-.069h-1.393a6.962 6.962 0 0 0-1.467.323 5.783 5.783 0 0 1-1.49.31.949.949 0 0 1-.113.007.929.929 0 0 1-.368-.075.77.77 0 0 1-.31-.616v-.12h.791v-.24h.033a4.64 4.64 0 0 0 .888-.206 11.108 11.108 0 0 1 1.967-.428zM166.389 179l.615-.831c-5.121-3.61-14.544-1.186-18.181-6.169l-.819.627c4.387 5.593 14.049 3.034 18.385 6.373zM186.704 112a5.517 5.517 0 0 1 4.42-1.788c2.662 0 5.734 1.1 8.43 1.1a7.022 7.022 0 0 0 1.45-.137l-.171-1.175a6.782 6.782 0 0 1-1.28.118c-2.457 0-5.546-1.1-8.43-1.1a6.471 6.471 0 0 0-5.119 2.098z"/>
        <path d="M186.811 114a5.505 5.505 0 0 1 4.474-1.81c2.556 0 5.432.944 7.719 1.078v-1.174c-2.1-.116-5.045-1.078-7.77-1.078a6.5 6.5 0 0 0-5.23 2.156l.74.828zM190.521 114.872a27.212 27.212 0 0 1 7.083 1.128l.4-.784a28.5 28.5 0 0 0-7.483-1.2 6.7 6.7 0 0 0-4.517 1.255l.837.523a5.494 5.494 0 0 1 3.68-.921zM191.561 30.13a97.222 97.222 0 0 1 25.669 33.549c1.985 4.121 2.019 8.847 3.799 13.321l.975-.374c-1.711-4.236-1.711-9-3.816-13.406a98.042 98.042 0 0 0-25.959-33.839C180.763 19.854 167.382 12.368 159.236 0h-1.232c8.3 12.845 22.041 20.534 33.557 30.13z"/>
        <path d="M170.21 19.666A72.112 72.112 0 0 1 184.198 33l.806-.688a73.247 73.247 0 0 0-14.126-13.524C165.29 14.9 157.37 6.882 156.084 0h-1.08c1.286 7.5 9.429 15.588 15.206 19.666zM194.004.957A65.786 65.786 0 0 1 189.062 0h-4.058a68.014 68.014 0 0 0 8.847 2zM2.26 40.2a32.9 32.9 0 0 1 6.614 1.08 62.74 62.74 0 0 1 21.142 9.311c13.416 8.878 16.424 25.237 16.732 40.67 0 1.715.1 3.43.1 5.144 0 4.63-.479 9.311-2.94 12.6-3.415 4.616-10.098 5.285-15.977 5.695-1.248.086-2.5.137-3.709.137-9.451 0-17.843-2.778-24.218-8.574v2.814a37.518 37.518 0 0 0 24.218 7.905 32.474 32.474 0 0 0 3.863-.154c5.828-.446 13.279-.928 17.501-6.534 2.939-3.978 3.418-9.105 3.418-13.855 0-1.835 0-3.618-.1-5.264-.327-15.553-3.421-32.875-17.675-42.44a65.06 65.06 0 0 0-21.859-9.6A34.385 34.385 0 0 0 2.311 38a9.984 9.984 0 0 0-2.256.24v2.195a7.616 7.616 0 0 1 2.2-.24zM2.021 16.793a20.21 20.21 0 0 0 1.854 9.335 7.686 7.686 0 0 0 3.4 3.55c1.259.666 2.5 1.024 4.032 1.843 3.711 1.962 7.165 4.624 11.197 6.587A35.092 35.092 0 0 0 37.457 42a20.989 20.989 0 0 0 9.731-2.287C61.29 32.425 71.004 15.957 71.004.137V0h-2.092v.137c0 14.967-9.339 30.872-22.66 37.7a18.953 18.953 0 0 1-8.778 2.063 33.056 33.056 0 0 1-14.035-3.686c-3.794-1.826-7.23-4.454-11.143-6.553-1.7-.9-3.045-1.314-4.015-1.826a5.59 5.59 0 0 1-2.5-2.679 18.276 18.276 0 0 1-1.616-8.362c0-4.045.663-8.345.9-11.946.085-1.6.255-3.191.408-4.778H3.381c-.153 1.536-.323 3.089-.408 4.642-.269 3.445-.952 7.746-.952 12.081z"/>
        <path d="M35.268 75.576v.136c0 3.237-2.483 6.407-2.621 10.644v.339c0 8.813 5.957 17.61 13.176 22.305l1.181-1.695c-6.684-4.271-12.257-12.695-12.239-20.559v-.322c0-3.39 2.552-6.458 2.6-10.661a.646.646 0 0 0 0-.186c-.1-3.932-2.274-7.661-2.865-10.983a20.748 20.748 0 0 1-.365-3.9 72.485 72.485 0 0 1 .669-7.494l-2.135-.2a74.2 74.2 0 0 0-.665 7.695 22.255 22.255 0 0 0 .4 4.288c.781 3.729 2.847 7.407 2.864 10.593z"/>
        <path d="M41.247 81.275a8.175 8.175 0 0 0 4.757-6.023L43.996 75a6.205 6.205 0 0 1-3.6 4.323 52.37 52.37 0 0 1-6.392 2.641L34.383 84a50.566 50.566 0 0 0 6.864-2.725zM5.831 40c2.901-3.939 2.901-6.86 4.173-10.349L7.904 29c-1.357 3.889-1.3 6.343-3.9 9.832L5.795 40zM2.186 19l1.818-1.269a11.438 11.438 0 0 0-4-3.731v2.724A8.777 8.777 0 0 1 2.186 19zM10.541 59l1.463-1.533A49.63 49.63 0 0 1 .004 41v4.785A51.7 51.7 0 0 0 10.541 59z"/>
        <path d="M16.589 40l1.415-1.542A46.889 46.889 0 0 0 .004 28v2.162A44.74 44.74 0 0 1 16.589 40zM22.992 133.988a24.526 24.526 0 0 0 14.338-4.07 53.428 53.428 0 0 0 13.146-13.8 34.424 34.424 0 0 1 4.359-5.963 8.031 8.031 0 0 1 5.994-2.11h.988l.187-2.029h-1.107a10.094 10.094 0 0 0-7.424 2.663 35.38 35.38 0 0 0-4.769 6.382 50.441 50.441 0 0 1-12.583 13.232 22.407 22.407 0 0 1-13.129 3.7c-7.544 0-15.853-2.579-22.988-5.377v2.146c7.067 2.73 15.257 5.209 22.988 5.226z"/>
        <path d="M55.226 98.3c1.835 2.283 3.296 6.526 5.317 8.7l1.461-1.53c-1.444-1.37-3.041-5.705-5.1-8.435-2.578-3.27-5.84-5.461-8.49-8.035l-1.41 1.565c2.769 2.735 5.912 4.87 8.222 7.735z"/>
        <path d="M76.46 93h.8l.221.768 1.335 4.572c.67 2.285 1.388 4.637 2.088 6.911 3.491 11.372 7.1 23.13 7.1 35.141a53.381 53.381 0 0 1-1.025 10.594c-1.652 8.26-5.515 14.723-11.482 19.209-5.429 4.082-12.563 6.515-21.203 7.234-2.951.253-6.899.545-11.27.545a55.28 55.28 0 0 1-1.681.026 54.584 54.584 0 0 1-17.444-2.858 18.544 18.544 0 0 1-7.368-4.8 13.915 13.915 0 0 1-3.527-8.233V160.4c.056-5.814 2.666-11.339 7.979-16.891 4.59-4.8 10.421-8.825 15.565-12.379 2.178-1.5 4.236-2.926 6-4.27 7.413-5.545 13.656-12.894 19.693-20 1.929-2.271 3.923-4.618 5.922-6.868l.836-.921c.169-.214.353-.449.548-.7.545-.7 1.163-1.486 1.788-2.249A7.146 7.146 0 0 1 76.46 93zm-34.956 83.038c.538 0 1.082-.008 1.618-.025 4.484 0 8.472-.3 11.083-.529a49.81 49.81 0 0 0 11.03-2.189 31.31 31.31 0 0 0 9.02-4.614 26.167 26.167 0 0 0 6.68-7.409 33.658 33.658 0 0 0 4.012-10.572 50.275 50.275 0 0 0 .99-10.236c.014-11.68-3.595-23.434-7.085-34.8-.671-2.186-1.365-4.446-2.017-6.654l-1.076-3.7a6.844 6.844 0 0 0-2.749 2.252 33.573 33.573 0 0 1-3.415 3.992c-1.965 2.21-3.939 4.535-5.848 6.784-6.076 7.156-12.358 14.556-19.989 20.29-1.6 1.179-3.386 2.414-5.277 3.722-5.185 3.585-11.062 7.648-15.621 12.315-5.272 5.4-7.775 10.6-7.653 15.9v1.51a11.721 11.721 0 0 0 2.989 7 17.128 17.128 0 0 0 6.575 4.246 52.751 52.751 0 0 0 16.733 2.717z"/>
        <path d="M94.943 103.16a14.492 14.492 0 0 0 4.442.7c4.375 0 8.088-1.866 12.14-3.155a22.882 22.882 0 0 1 7.155-1.069c14.276 0 29.943 12.009 39 22.05a27.144 27.144 0 0 1 7.155 18.5 35.913 35.913 0 0 1-11.14 25.052c-8.242 8.162-15.465 19.438-27.13 19.676h-.761c-18.481 0-31.639-17.894-39.1-33.363l-1.882.9c7.594 15.637 20.989 34.481 40.982 34.549h.814c13.186-.424 20.632-12.518 28.618-20.354a37.9 37.9 0 0 0 11.768-26.546 29.094 29.094 0 0 0-7.7-19.9c-9.258-10.177-25.06-22.626-40.49-22.677a25.171 25.171 0 0 0-7.884 1.221c-4.222 1.374-7.766 3.07-11.5 3.053a12.645 12.645 0 0 1-3.832-.594c-4.9-1.527-9.359-4.936-14.548-6.988a47.343 47.343 0 0 0-3.391-1.221l-.655 1.974c1.1.373 2.187.763 3.255 1.187 4.799 1.781 9.292 5.309 14.684 7.005zM73.968 95l1.036-1.822C67.27 89.08 53.304 87.882 48.73 81l-1.726 1.147C52.666 90.21 67.029 91.087 73.968 95z"/>
        <path d="M52.563 39.084c6.193 0 11.346 3.066 18.119 4.37 8.531 1.694 12.933 5.082 19.348 11.2 7 6.657 14.792 12.247 17.232 21.479a15.364 15.364 0 0 1 .648 3.879 2.544 2.544 0 0 1-.478 1.8 1.818 1.818 0 0 1-1.328.365c-2.047 0-5.7-1.474-9.128-2.134a12.662 12.662 0 0 0-2.61-.271c-8.138 0-12.881 7.419-16.908 13.026L79.162 94c4.042-5.759 8.531-12.213 15.185-12.145a11.322 11.322 0 0 1 2.218.22c3.156.593 6.688 2.151 9.52 2.185a3.8 3.8 0 0 0 2.815-1 4.451 4.451 0 0 0 1.092-3.252 17.719 17.719 0 0 0-.717-4.421c-2.729-10.163-11.021-15.923-17.811-22.427C85.066 47.028 80.104 43 70.99 41.4c-6.313-1.152-11.585-4.37-18.512-4.4a20.843 20.843 0 0 0-2.474.152l.256 2.067a19.967 19.967 0 0 1 2.3-.136z"/>
        <path d="M38.304 55.648a12.112 12.112 0 0 1-.22-2.3c.003-7.276 6.995-13.078 13.92-14.319L51.632 37c-7.67 1.392-15.577 7.68-15.628 16.35a14.455 14.455 0 0 0 .254 2.65zM134.787 53.6c8.332-3.332 15.147-9.553 23.359-9.5a16.989 16.989 0 0 1 3.731.41c8.979 1.931 14.3 11.963 19.066 19.96a18.033 18.033 0 0 1 2.961 9.385c0 8-7.309 14.475-16.8 19.465s-20.7 8.373-27.751 10.68l.63 2c7.037-2.29 18.421-5.742 28.097-10.818s17.873-11.962 17.924-21.327a20.105 20.105 0 0 0-3.271-10.455c-4.737-7.78-10.087-18.58-20.446-20.939a19.062 19.062 0 0 0-4.192-.461c-9.286 0-16.272 6.614-24.126 9.638-11.126 4.375-19.389 10.254-28.965 16.834l1.193 1.709c9.707-6.546 17.807-12.322 28.59-16.581z"/>
        <path d="M115.618 74.994a40.611 40.611 0 0 0 20.386-5.67c7.884-4.894 16.4-8.573 24.5-13.5 3.777-2.28 6.92-4.491 8.5-9.132L167.033 46c-1.461 4-3.942 5.755-7.7 8.05-7.935 4.827-16.464 8.438-24.518 13.5a38.476 38.476 0 0 1-19.3 5.367 25.835 25.835 0 0 1-7.85-1.08l-.661 1.963a27.459 27.459 0 0 0 8.614 1.2zM88.755 61.283c4.63 4.56 8.573 8.325 11.557 13.763 1.32 2.364 2.143 5.624 3.977 7.954l1.715-1.283c-1.457-1.774-2.332-5.067-3.789-7.65-3.189-5.775-7.321-9.71-12-14.236-1.715-1.689-4.355-4-6.464-6.4s-3.669-5.066-3.635-7.177V46h-2.112v.338c0 3.107 1.938 5.961 4.149 8.444s4.904 4.829 6.602 6.501zM59.239 118.036c2.965-5.326 7.365-9.761 10.957-15.052 1.959-2.894 3.849-5.925 5.808-8.802L74.27 93c-1.994 2.928-3.883 5.959-5.808 8.8-3.467 5.137-7.888 9.556-11.061 15.224-3.328 5.976-4.733 12.126-6.397 18.445l2.063.531c1.63-6.37 3.017-12.3 6.172-17.964zM62.904 107.27a15.333 15.333 0 0 1-.824-4.986 13.016 13.016 0 0 1 4.924-10.547L65.776 90a15.159 15.159 0 0 0-5.772 12.266 17.374 17.374 0 0 0 .945 5.734zM89.712 90.768c4.366-2.007 5.551-5.62 8.292-8.363L96.481 81c-3.077 3.345-4.129 6.406-7.632 7.962s-7.919 2.291-11.845 4.198l.914 1.84c3.536-1.823 7.886-2.559 11.794-4.232z"/>
        <path d="M52.087 157.914c2.36-9.425 3.992-19.261 7.741-28.053s7.498-16.968 11.889-25.418c1.887-3.66 2.777-7.184 4.287-10.605L74.025 93c-1.562 3.643-2.447 7.1-4.221 10.486-4.409 8.553-8.227 16.832-11.941 25.658-3.884 9.099-5.516 19.038-7.859 28.343l2.083.513z"/>
        <path d="M71.047 126.729a8.892 8.892 0 0 1-1.761-5.763 38.316 38.316 0 0 1 2.554-11.542c.616-1.847 1.532-4.763 2.642-7.525a19.279 19.279 0 0 1 3.522-6.374L76.525 94a20.578 20.578 0 0 0-4.156 7.153c-1.146 2.847-2.065 5.813-2.678 7.627a40.38 40.38 0 0 0-2.677 12.186A10.973 10.973 0 0 0 69.198 128z"/>
        <path d="M71.504 145l1.884-.964a16.9 16.9 0 0 1-1.2-7.456v-5.021a73.34 73.34 0 0 1 1.881-14.507 142.4 142.4 0 0 1 4.935-19.325L76.998 97a142.123 142.123 0 0 0-5.022 19.613 74.686 74.686 0 0 0-1.936 14.946v5.021a18.388 18.388 0 0 0 1.464 8.42zM63.704 132.006a6.967 6.967 0 0 1-.656-3.258c0-4.955 3.215-12.173 4.9-16.082 2.299-5.384 5.767-10.288 8.056-15.843L74.085 96c-2.155 5.144-5.622 10.184-8.029 15.825-1.683 3.909-5.052 11.162-5.052 16.923a9.4 9.4 0 0 0 .911 4.252z"/>
        <path d="M81.004 123.628a97.9 97.9 0 0 1-2.695-18.711 24.873 24.873 0 0 1 .973-7.359L77.074 97a26.616 26.616 0 0 0-1.07 7.917A99.575 99.575 0 0 0 78.74 124z"/>
        <path d="M85.663 110.06c2.685 4.677 5.034 9.886 8.642 14.255 2.634 3.255 4.782 8.685 8.39 11.685l1.309-1.628c-2.97-2.433-5.185-7.744-8.055-11.393-3.356-4.095-5.722-9.2-8.39-13.981-2.567-4.352-4.833-11.171-9.515-14l-1.04 1.835c3.574 2.073 6.024 8.584 8.659 13.227z"/>
        <path d="M102.526 114.279c5.778 5.783 11.699 11.621 16.906 17.721l1.572-1.366c-5.376-6.171-11.31-12.034-17.092-17.822s-11.834-9.375-18.292-13.674c-2.992-1.956-6.12-4.89-9.974-6.137l-.642 1.972c3.263 1.012 6.306 3.777 9.467 5.885 6.61 4.248 12.561 7.942 18.055 13.421z"/>
        <path d="M91.875 138.2a25.284 25.284 0 0 1-1.696 9.94l1.916.86a27.564 27.564 0 0 0 1.9-10.8 70.778 70.778 0 0 0-3.833-21.162C87.432 108.9 82.244 103.1 78.886 96l-1.882.912c3.561 7.449 8.665 13.177 11.174 20.8a69.228 69.228 0 0 1 3.697 20.488zM107.581 126l1.423-1.492C99.632 115.339 89.623 107.966 82.678 97l-1.674 1.136c7.163 11.372 17.339 18.745 26.577 27.864zM96.927 35.306A12.224 12.224 0 0 0 103.122 38a3.477 3.477 0 0 0 2.882-1.465l-1.726-1.145a1.235 1.235 0 0 1-1.122.539 10.586 10.586 0 0 1-4.952-2.307 45.3 45.3 0 0 1-4.262-3.522A19.689 19.689 0 0 1 88.057 20l-2.053.488a21.584 21.584 0 0 0 6.471 11.063 46.684 46.684 0 0 0 4.452 3.755zM87.551 18.471a12.67 12.67 0 0 1 3.263-.4c4.853-.003 9.979 2.501 14.558 3.929l.632-1.983c-4.34-1.311-9.637-4-15.19-4.017a14.11 14.11 0 0 0-3.81.488l.547 1.983zM100.322 28.719A13.948 13.948 0 0 0 107.84 32h.164v-2.147h-.131a12.394 12.394 0 0 1-6.352-2.88A17.95 17.95 0 0 1 96.777 22l-1.773 1.012a19.364 19.364 0 0 0 5.318 5.707z"/>
        <path d="M102.036 27.024c7.449 3.468 15.609 6.937 21.195 6.937a6.075 6.075 0 0 0 5.773-2.74l-1.828-1.021c-.559 1.041-1.794 1.613-3.944 1.63-4.825 0-13-3.208-20.315-6.711s-13.9-7.18-16.15-8.116l-.763 1.974c1.913.78 8.532 4.523 16.032 8.047zM88.166 14.351a3.012 3.012 0 0 1-.132-.9c0-1.707 2.03-3.772 4.95-5.309a40.662 40.662 0 0 1 8.02-3.111L100.476 3a43.154 43.154 0 0 0-8.432 3.277c-3.04 1.707-5.957 3.841-6.04 7.17A5.724 5.724 0 0 0 86.235 15z"/>
        <path d="M87.375 15c6.747-1.318 13.157-3.383 19.853-3.81h2.276c2.851 0 5.8.267 8.771.267a32.837 32.837 0 0 0 3.729-.178l-.236-2.19a28.155 28.155 0 0 1-3.492.178c-2.85 0-5.785-.267-8.772-.267h-2.412c-6.999.463-13.488 2.582-20.088 3.846L87.375 15zM84.026 13.787V15h2.063v-1.145c0-5.825 1.409-10.472 4.915-13.855h-2.818a21.35 21.35 0 0 0-4.16 13.667z"/>
        <path d="M86.004 8.218L86.958 10A32.63 32.63 0 0 0 97.004 0h-2.433a28.688 28.688 0 0 1-8.567 8.218z"/>
        <path d="M92.862 7a38.03 38.03 0 0 0 10.142-7h-3.037a33.743 33.743 0 0 1-7.963 5.258zM91.84 12c9.679-3.288 19.307-6.214 28.457-11.079L122.004 0h-4.472c-8.536 4.241-17.428 6.986-26.528 10.11zM87.447 16.975a32.786 32.786 0 0 1 7.207-.73c8.262 0 16.917 2.408 25.282 2.755l.068-2.244c-8.058-.31-16.73-2.737-25.368-2.756a34.765 34.765 0 0 0-7.632.786l.426 2.189z"/>
        <path d="M120.668 24a52.474 52.474 0 0 0 9.336-1.023l-.375-2.1a51.453 51.453 0 0 1-8.961.988 26.305 26.305 0 0 1-7.087-.936C105.267 18.659 95.914 15.5 87.123 15l-.119 2.116c8.4.484 17.65 3.572 26.032 5.861A28.484 28.484 0 0 0 120.668 24z"/>
        <path d="M110.28 11.2a145.05 145.05 0 0 0 17.724-8.5L126.868 1a144.7 144.7 0 0 1-17.448 8.5c-8.016 3.606-16.64 3.4-25.416 5.443L84.469 17c8.449-2.074 17.259-1.887 25.811-5.8zM72.791 43l.576-2.019c-.922-.325-1.251-.941-1.3-2.464-.099-3.781 3.637-10.848 4.937-11.977l-1.4-1.54c-1.876 1.985-5.5 8.675-5.6 13.586v.188A4.207 4.207 0 0 0 72.791 43zM90.983 48.743a57.954 57.954 0 0 1 9.236 3.726c5.253 2.539 11.038 5.359 17.167 6.331a17.183 17.183 0 0 0 2.85.2c1.407 0 2.747-.1 4.017-.1q.781-.038 1.562 0l.189-2.029h-1.717c-1.391 0-2.712.1-4.017.1a16.076 16.076 0 0 1-2.506-.165c-5.614-.89-11.245-3.611-16.5-6.15a59.312 59.312 0 0 0-9.6-3.858 43.978 43.978 0 0 0-4.721-.742A7.189 7.189 0 0 1 83.515 45l-1.511 1.4a8.339 8.339 0 0 0 4.567 1.649 28.453 28.453 0 0 1 4.412.694zM69.604.54l.8.92-.8-.92z"/>
        <path d="M81.567 13.089c5.089 13.276 23.578 21.311 37.317 21.363a21.566 21.566 0 0 0 2.561-.1c5.869-.543 12.79-4.747 18.3-4.7a8.739 8.739 0 0 1 3.392.61 2.882 2.882 0 0 1 1.8 3.035 24.7 24.7 0 0 1-2.526 8.48 37.291 37.291 0 0 0-3.036 7.969l2.069.254a36.935 36.935 0 0 1 2.85-7.545 26.2 26.2 0 0 0 2.7-9.223 4.951 4.951 0 0 0-3.09-4.951 10.555 10.555 0 0 0-4.139-.78c-6.395 0-13.383 4.34-18.472 4.7q-1.17.1-2.392.1c-13.01 0-31.024-8.054-35.384-20.007A348.93 348.93 0 0 1 79.209.002h-2.205q2.163 6.687 4.563 13.087zM69.004 1.06h.866l-.567-.92.567.92.581.92a1.55 1.55 0 0 0 .3-.92 3 3 0 0 1 .253-1.04h-1.871a5.888 5.888 0 0 0-.113.88.471.471 0 0 0-.016.16zM76.532 27l.472-1.994a9.856 9.856 0 0 1-5.509-4.984 16.451 16.451 0 0 1-2.426-7.776 8.045 8.045 0 0 1 0-.947l-2.039-.3a7.488 7.488 0 0 0 0 1.246 18.554 18.554 0 0 0 2.7 8.806A11.909 11.909 0 0 0 76.532 27z"/>
        <path d="M154.552.274a5.558 5.558 0 0 1 .226 1.526c0 2.668-1.948 5.7-3.043 8.723-1.287 3.66-1.217 7.286-1.739 10.348a9.149 9.149 0 0 1-4.992 7.282L146.03 30a11.255 11.255 0 0 0 6.074-8.774c.591-3.421.539-6.842 1.739-10.023.9-2.651 3.109-5.815 3.161-9.403a7.089 7.089 0 0 0-.243-1.8h-2.227a1.279 1.279 0 0 1 .017.274zM83.004 14.213l1.955.787c3.1-7.148 9.811-9.626 17.511-11.869 3.08-.904 6.264-2.009 9.534-3.131h-6.419c-1.263.419-2.509.8-3.72 1.155-7.7 2.227-15.348 4.955-18.861 13.058z"/>
        <path d="M147.004 29.074L145.391 28a5.659 5.659 0 0 1-1.387 1.421L145.085 31a7.736 7.736 0 0 0 1.919-1.926z"/>
        <path d="M154.431 33.992a4.924 4.924 0 0 0 3.129-.9 4.229 4.229 0 0 0 1.444-3.355 17.8 17.8 0 0 0-1.772-6.1 32.6 32.6 0 0 1-2.6-12 22.831 22.831 0 0 1 .4-4.239l-1.987-.4a23.322 23.322 0 0 0-.447 4.641 34.68 34.68 0 0 0 2.744 12.786 16 16 0 0 1 1.655 5.312 2.09 2.09 0 0 1-.7 1.675 2.985 2.985 0 0 1-1.833.436 58.971 58.971 0 0 1-8.2-1.558l-.26 2.044a56.8 56.8 0 0 0 8.427 1.658zM88.004 8.47L89.411 10c4.081-3.289 7.934-6.579 11.593-10h-3.078c-3.079 2.862-6.439 5.641-9.922 8.47zM82.013 2.282a1.428 1.428 0 0 1-1.168.6h-.452L80.004 4.9a3.8 3.8 0 0 0 .841.1 3.286 3.286 0 0 0 2.6-1.292A9.284 9.284 0 0 0 85.004 0H83.01l-.093.453a5.741 5.741 0 0 1-.9 1.829zM21.004 133.532l-1.5-1.532c-6.586 6.372-13.209 12.919-19.5 19.779V155c6.71-7.452 13.855-14.556 21-21.468zM37.75 200.153a98.667 98.667 0 0 0 15.254-23.233L51.14 176a96.942 96.942 0 0 1-15.036 22.757A78.937 78.937 0 0 1 .004 221.8v2.2a81.134 81.134 0 0 0 37.746-23.847zM97.559 205l.629-3.2a163.018 163.018 0 0 1 6.816-23.489l-1.886-.8a149.93 149.93 0 0 0-6.138 20.45 79.644 79.644 0 0 1-3.937-23.639 37.808 37.808 0 0 1 .926-8.811L92.004 165a39.121 39.121 0 0 0-1 9.323 80.356 80.356 0 0 0 5.348 27.643zM164.804 108.467c1.995-.1 4.7-.321 7.506-.321 4.531 0 9.281.659 11.327 2.771a3.97 3.97 0 0 1 1.287 2.974c0 2.906-2.908 6.759-4.548 9.8-6.9 13.3-9.163 27.475-22.282 35.619l1.099 1.69c14-8.77 16.3-23.656 23.026-36.413 1.42-2.805 4.717-6.759 4.785-10.764a5.98 5.98 0 0 0-1.91-4.444c-2.976-2.889-8.082-3.379-12.782-3.379-2.908 0-5.664.22-7.625.321a70.429 70.429 0 0 0-17.683 3.498l.626 1.994a67.487 67.487 0 0 1 17.174-3.346z"/>
        <path d="M170.304 182.234c4.043.256 8.051-.1 11.8.478 2.292.288 5.022 2.22 7.99 2.288h.528l1.382-.137-.495-1.3c-.665-1.707-3.787-10.518-7.42-18.782a98.369 98.369 0 0 0-5.646-11.3 22.076 22.076 0 0 0-2.78-3.773 4.553 4.553 0 0 0-3.071-1.708 2.4 2.4 0 0 0-1.416.444l1.194 1.707a.307.307 0 0 1 .222 0 2.918 2.918 0 0 1 1.552 1.024c2.678 2.732 6.362 10.245 9.348 17.5 2.422 5.773 4.469 11.305 5.493 14.105-1.825-.427-4.128-1.707-6.55-2.151-4.111-.615-8.188-.239-11.94-.5-9.62-.7-17.518-.7-25.245-6.386l-1.246 1.712c8.341 6.13 16.87 6.164 26.3 6.779z"/>
        <path d="M185.697 139.049a38.086 38.086 0 0 1 10.372 1.451c6.767 2.061 18.611 8.052 23.517 13.768-4.7 1.945-9.052 5.905-13.434 9.417-4.822 3.891-9.644 7.2-14.6 7.179a12.54 12.54 0 0 1-6.125-1.722l-1 1.911a14.624 14.624 0 0 0 7.124 1.947c5.888 0 11.015-3.736 15.887-7.644s9.56-8.126 14.179-9.556l1.387-.43-.846-1.205c-4.89-6.765-17.884-13.222-25.48-15.615a39.286 39.286 0 0 0-10.981-1.55c-4.044 0-8.054.637-10.693 2.737l1.286 1.722c1.914-1.722 5.583-2.427 9.407-2.41zM160.077 38.847c4.432-2.169 6.039-6.627 9.744-7.949a12.228 12.228 0 0 1 4.382-.814 13 13 0 0 1 8.729 3.39c3.789 3.492 4.991 6.458 4.991 9.305.102 5.865-5.684 11.865-8.069 19.611l2 .61c2.06-7.085 8.065-13.085 8.15-20.22 0-3.508-1.59-7.119-5.65-10.847A15.21 15.21 0 0 0 174.204 28a14.153 14.153 0 0 0-5.075.949c-4.72 1.949-6.378 6.508-9.863 8.017a10.809 10.809 0 0 1-4.432.78 40.717 40.717 0 0 1-9.321-1.441l-.509 2.017a42.946 42.946 0 0 0 9.829 1.508 12.937 12.937 0 0 0 5.244-.983zM221.44.958A27.093 27.093 0 0 0 224.004 0h-22a44.436 44.436 0 0 0 12.23 2A23.891 23.891 0 0 0 221.44.958z"/>
        <path d="M206.919 83.773a25.776 25.776 0 0 1-2.373 10.879c-2.763 5.911-3.8 12.815-7.22 17.681s-9.102 7.761-14.864 9.667l.642 2c5.951-1.97 12.086-4.917 15.934-10.451s4.766-12.489 7.389-17.989a27.66 27.66 0 0 0 2.577-11.787c0-7.606-3.034-15.419-10.034-19.633-5.508-3.255-11.966-3.17-17.22-5.14l-.746 1.97c5.8 2.193 12.1 2.142 16.949 5.14 6.151 3.632 8.951 10.639 8.966 17.663z"/>
        <path d="M229.192 5.671a5.873 5.873 0 0 0 1.718 2.964 3.751 3.751 0 0 0 2.525.72h1.869a12.191 12.191 0 0 1 1.718.1 6.491 6.491 0 0 1 5.325 3.992 18.991 18.991 0 0 1 1.411 7.953 45.765 45.765 0 0 1-.4 5.774c-1.146 9.198-7.501 16.226-13.154 23.726a29.737 29.737 0 0 0-5.7 10.28c-.91 3.735-.189 7.367-1.168 10.382a8.035 8.035 0 0 1-8.159 6.322 17.209 17.209 0 0 1-8.142-2.364l-1.031 1.85a19.154 19.154 0 0 0 9.172 2.621 10.164 10.164 0 0 0 10.306-7.778c1.116-3.718.378-7.384 1.185-10.485a27.94 27.94 0 0 1 5.342-9.543c5.531-7.401 12.264-14.685 13.57-24.739a48.961 48.961 0 0 0 .412-6.031 21.213 21.213 0 0 0-1.6-8.857 8.586 8.586 0 0 0-6.974-5.14 17.1 17.1 0 0 0-1.975-.12h-1.872a1.876 1.876 0 0 1-1.22-.274 4.228 4.228 0 0 1-1.031-1.97 19.534 19.534 0 0 1-.464-4.437 3.76 3.76 0 0 0 0-.617h-2.161c0 .257.1.514.137.822a19.158 19.158 0 0 0 .361 4.849z"/>
        <path d="M238.733 85l1.271-1.747A121.216 121.216 0 0 0 222.961 73l-.957 1.921A118.416 118.416 0 0 1 238.733 85zM223.938 89l1.066-1.674c-3.91-2.194-5.619-7.769-11.509-9.326l-.491 1.992c4.587.988 6.212 6.095 10.934 9.008zM216.097 111l1.907-.722A84.576 84.576 0 0 0 207.648 90l-1.644 1.238A83.616 83.616 0 0 1 216.097 111zM204.004 128.3c-1.636-4.4-3.812-10.064-6.364-13.3l-1.636 1.308c2.209 2.749 4.515 8.383 6.02 12.692zM239.004 69.278c-4.057-2.226-8.383-6.32-13.631-7.278l-.369 1.966c4.426.734 8.635 4.581 12.977 7.034zM229.14 56.085c3.795 0 8.304 2.015 11.911 3.915l.953-1.88c-3.743-1.915-8.423-4.103-12.915-4.12h-.085v2.1zM257.946 57l1.058-1.685A101.825 101.825 0 0 0 234.524 46l-.52 2a98.479 98.479 0 0 1 23.942 9zM243.104 34.763a3.851 3.851 0 0 1 2.228-.556c2.823.001 6.813 1.614 9.572 1.793l.1-2.2c-2.194 0-6.284-1.8-9.675-1.8a5.807 5.807 0 0 0-3.325.918l1.114 1.792zM10.96 61.958a2.5 2.5 0 1 0-1.877-.4 2.5 2.5 0 0 0 1.877.4zM19.713 44.936a4 4 0 1 0-4.643-3.213 4 4 0 0 0 4.643 3.213zM51.714 140.936a4 4 0 1 0-3.764-1.353 4 4 0 0 0 3.764 1.353zM51.81 160.921a4.016 4.016 0 1 0-3.042-.611 4 4 0 0 0 3.042.611zM63.131 136.946a3.5 3.5 0 1 0-4.072-2.828 3.5 3.5 0 0 0 4.072 2.828zM72.135 149.943a3.5 3.5 0 1 0-2.631-.569 3.5 3.5 0 0 0 2.631.569zM71.521 129.949a3 3 0 1 0-3.467-2.4 2.964 2.964 0 0 0 3.467 2.4zM79.768 129.926a4 4 0 1 0-3.02-.626 4 4 0 0 0 3.02.626zM91.542 151.951a3 3 0 1 0-2.248-.487 3 3 0 0 0 2.248.487zM103.463 137.964a3 3 0 1 0-3.409-2.42 3 3 0 0 0 3.409 2.42zM109.304 126.977a2 2 0 1 0-2.274-1.657 1.982 1.982 0 0 0 2.274 1.657zM122.118 134.945a3.5 3.5 0 1 0-4.058-2.823 3.5 3.5 0 0 0 4.058 2.823z"/>
        <path d="M204.304 134.931a4.5 4.5 0 1 0-5.22-3.6 4.5 4.5 0 0 0 5.22 3.6zM217.134 115.945a3.5 3.5 0 1 0-4.074-2.824 3.5 3.5 0 0 0 4.074 2.824zM225.719 93.935a4 4 0 1 0-3-.65 4 4 0 0 0 3 .65zM242.126 88.944a3.5 3.5 0 1 0-2.64-.584 3.5 3.5 0 0 0 2.64.584zM240.525 72.954a3 3 0 1 0-3.473-2.418 3 3 0 0 0 3.473 2.418zM240.957 61.955a2.5 2.5 0 1 0-2.9-1.937 2.5 2.5 0 0 0 2.9 1.937zM258.495 64.913a5.516 5.516 0 1 0-4.128-.9 5.5 5.5 0 0 0 4.128.9zM257.529 38.951a3 3 0 1 0-3.464-2.351 3 3 0 0 0 3.464 2.351zM107.063 42.955a3.5 3.5 0 1 0-3.99-2.765 3.5 3.5 0 0 0 3.99 2.765zM127.72 34.935a4 4 0 1 0-2.993-.647 4 4 0 0 0 2.993.647zM134.143 23.946a3.5 3.5 0 1 0-4.085-2.834 3.532 3.532 0 0 0 4.085 2.834zM105.532 24.95a2.983 2.983 0 1 0-2.244-.484 3 3 0 0 0 2.244.484zM108.533 32.953a3 3 0 1 0-2.822-1.018 3 3 0 0 0 2.822 1.018zM125.251 14.934a4.5 4.5 0 1 0-5.172-3.619 4.5 4.5 0 0 0 5.172 3.619zM119.936 20.962a2.5 2.5 0 1 0-2.89-2 2.5 2.5 0 0 0 2.89 2zM125.072 2.09a3.412 3.412 0 0 0 2.232 2.696 3.556 3.556 0 0 0 3.5-.616 3.34 3.34 0 0 0 1.12-3.286A2.7 2.7 0 0 0 131.61 0h-6.29a3.342 3.342 0 0 0-.248 2.09zM101.72 8.932a3.981 3.981 0 1 0-3-.641 4 4 0 0 0 3 .641z"/>
    </g>
</svg>