<svg id="Component_2_1" data-name="Component 2 1" xmlns="http://www.w3.org/2000/svg" xmlns:xlink="http://www.w3.org/1999/xlink" viewBox="0 0 167 135"><defs><clipPath id="clip-path"><rect x="13" y="16" width="141" height="103" fill="none"/></clipPath></defs><rect id="Rectangle_24" data-name="Rectangle 24" width="167" height="135" rx="36" fill="none"/><g clip-path="url(#clip-path)"><g id="Group_8" data-name="Group 8"><path id="Path_606" data-name="Path 606" d="M63,90.47a16,16,0,0,1,1.51-1.08A2.63,2.63,0,0,1,65.72,89c.22,0,.35.09.35.3a4.45,4.45,0,0,0-.69,1.17c-.39.77-.95,1.73-1.6,2.9s-1.47,2.42-2.42,3.76a33.57,33.57,0,0,1-3.07,3.76,18.37,18.37,0,0,1-3.5,2.9,6.84,6.84,0,0,1-3.72,1.16,4.22,4.22,0,0,1-3-1.47c-1-1-1.47-2.55-1.47-4.75a25.55,25.55,0,0,1-3.8,4,6.69,6.69,0,0,1-4.28,1.77,5.65,5.65,0,0,1-2.25-.48,6.11,6.11,0,0,1-1.81-1.25,7,7,0,0,1-1.25-1.56,3.16,3.16,0,0,1-.48-1.47,18.79,18.79,0,0,1,.86-5.1,51.75,51.75,0,0,1,2-5.44c.73-1.73,1.42-3.33,2.12-4.76s1.16-2.42,1.42-3a1.22,1.22,0,0,1,1.21-.56,1.72,1.72,0,0,1,.87.3,2.49,2.49,0,0,0,.51.21c.14,0,.18,0,.18-.13a3.68,3.68,0,0,0,.65.35c.21.09.3.17.3.3a4.24,4.24,0,0,0-1.3,1.64c-.48.87-.91,1.77-1.34,2.77s-.74,1.86-1,2.68a6.21,6.21,0,0,0-.43,1.47,4.39,4.39,0,0,0,.6-1.08c.34-.74.73-1.56,1.25-2.51s.95-1.86,1.38-2.77a16,16,0,0,1,1-1.9,1.43,1.43,0,0,0,.56.35c.26.09.35.13.3.13s.17.17.52.35a1.86,1.86,0,0,1,.78,1.25,2,2,0,0,0-.09.65v.56a26.93,26.93,0,0,0-1.77,3,35.86,35.86,0,0,0-1.86,4c-.56,1.38-1,2.64-1.42,3.85A9.94,9.94,0,0,0,39.35,99c0,.34.09.51.22.6a.64.64,0,0,0,.39.08,4.84,4.84,0,0,0,3.32-1.86,29.42,29.42,0,0,0,3.5-4.45q1.69-2.59,3.2-5.44c1-1.91,1.82-3.5,2.51-4.8a6.72,6.72,0,0,0,.3-.61,3,3,0,0,1,.3-.52l.17-.21a1.37,1.37,0,0,1,1.34-.65,4.32,4.32,0,0,1,1.51.3,6.46,6.46,0,0,1,1.56.82,7.3,7.3,0,0,1,1.21,1.08,1.9,1.9,0,0,1,.48,1.08,1,1,0,0,1-.09.43A32.56,32.56,0,0,0,56.73,89a41.21,41.21,0,0,0-1.9,4.37c-.52,1.42-1,2.85-1.34,4.19s-.6,2.59-.78,3.67a11.46,11.46,0,0,0,3-2.33c.95-1,1.81-2,2.68-3.07s1.64-2.08,2.42-3.07A10.9,10.9,0,0,1,63,90.47ZM50.94,98.68a13.29,13.29,0,0,1,.65-3.58q.63-2.13,1.47-4.2c.6-1.55,1.34-3.15,2.12-4.79-.13,0-.35.29-.69.86-.13.3-.39.86-.82,1.69s-.87,1.81-1.3,2.85-.83,2.16-1.17,3.24a9.89,9.89,0,0,0-.52,2.85c.09.35.13.7.26,1.08Z" fill="#292d42"/><path id="Path_607" data-name="Path 607" d="M90.31,90.82a9.39,9.39,0,0,1,1.55-1.12A2.36,2.36,0,0,1,93,89.26c.3,0,.43.13.43.35a3.89,3.89,0,0,1-.69,1.47l-.86,1.34c-.78,1.21-1.69,2.55-2.68,4a45.52,45.52,0,0,1-3.2,4.1,21.22,21.22,0,0,1-3.5,3.2,6,6,0,0,1-3.59,1.3,5,5,0,0,1-3.59-1.47,6,6,0,0,1-1.68-4.36,26.56,26.56,0,0,1-4.5,4,8.84,8.84,0,0,1-5,1.78,4,4,0,0,1-2.89-1,5.81,5.81,0,0,1-1.47-2.16,11.92,11.92,0,0,1-.65-3.07,18.21,18.21,0,0,1,1.21-6.44,22.25,22.25,0,0,1,3.11-5.83,19.59,19.59,0,0,1,4.19-4.24,7.64,7.64,0,0,1,4.58-1.64,6.94,6.94,0,0,1,5.1,2c1-2.55,2-4.84,2.9-6.83s1.86-3.71,2.68-5.1a26.38,26.38,0,0,1,2.16-3.2c.61-.73,1.08-1.12,1.34-1.12a3.17,3.17,0,0,1,2.33,1.34,4.65,4.65,0,0,1,1.17,3.11,3.69,3.69,0,0,1-.43,1.9L89,73.79c-.86,1.64-1.86,3.63-3,5.92s-2.25,4.71-3.28,7.18a67,67,0,0,0-2.64,7.26A22.5,22.5,0,0,0,79,100.29a6.12,6.12,0,0,0,0,.86c0,.31.09.56.13.78a10.17,10.17,0,0,0,3.33-2.2,24.78,24.78,0,0,0,2.85-3.2c.87-1.12,1.73-2.25,2.51-3.29A24.45,24.45,0,0,1,90.31,90.82Zm-26-2.68a22.18,22.18,0,0,1,7.13-6.22q-4.28,1.1-7.13,6.22ZM73.37,92a6.15,6.15,0,0,0,.47-1.26c.13-.52.3-1.08.43-1.64a12.78,12.78,0,0,0,.3-1.73c.05-.56.09-1.08.09-1.47,0-.65-.17-1-.52-1s-1,.34-1.6,1.08a22.68,22.68,0,0,0-2,2.68c-.69,1.08-1.38,2.29-2.07,3.58s-1.3,2.64-1.86,3.9a28.29,28.29,0,0,0-1.34,3.45,8.53,8.53,0,0,0-.52,2.34c0,.39.09.56.26.56a4.68,4.68,0,0,0,1.21-.74,22.14,22.14,0,0,0,2.38-1.94c.91-.82,1.86-1.73,2.9-2.72a23.38,23.38,0,0,0,2.72-3.16v-.34a2.75,2.75,0,0,1-.6-.48,1,1,0,0,1-.34-.69c-.1-.13,0-.26.08-.43Zm-1.43,6.22a15.57,15.57,0,0,0,2.46-3.8A21.25,21.25,0,0,1,73,96.27c-.56.69-1.13,1.34-1.69,1.94s-1,1.13-1.38,1.56-.52.65-.48.65l.95-.78c.3-.22.57-.47.83-.69A2.85,2.85,0,0,1,71.94,98.21ZM78.08,98a75.77,75.77,0,0,1,2.2-7.83,73.52,73.52,0,0,1,3.06-7.6C79.85,88.7,78.12,93.84,78.08,98Z" fill="#292d42"/><path id="Path_608" data-name="Path 608" d="M101.2,90.82c.56-.39,1.08-.74,1.56-1a2.37,2.37,0,0,1,1.16-.47c.3,0,.44.13.44.34a5.61,5.61,0,0,1-.7,1.56c-.47.86-1,1.86-1.77,3s-1.6,2.33-2.55,3.59a40.86,40.86,0,0,1-3,3.54A19.45,19.45,0,0,1,93.2,104a5.24,5.24,0,0,1-2.81,1.08,4.65,4.65,0,0,1-4.1-1.77,6.81,6.81,0,0,1-1.25-4,22,22,0,0,1,2-8.39c1.33-3.2,2.9-6.44,4.71-9.81.17-.39.64-.56,1.42-.56a5.11,5.11,0,0,1,1.6.26,6.4,6.4,0,0,1,1.56.69,5,5,0,0,1,1.25,1.08,2.08,2.08,0,0,1,.52,1.34,2.3,2.3,0,0,1-.43,1.34,60.84,60.84,0,0,0-4.93,9,19.33,19.33,0,0,0-1.94,7.6,12,12,0,0,0,3-2.29,37.13,37.13,0,0,0,2.68-3.06c.86-1.09,1.64-2.12,2.42-3.16A16.17,16.17,0,0,1,101.2,90.82ZM90.22,99A10.31,10.31,0,0,1,91,96.48c.43-1.17,1-2.38,1.43-3.54s1-2.21,1.38-3.11.65-1.34.74-1.26c-.35,0-.78.43-1.3,1.3a23.05,23.05,0,0,0-1.52,3.07,37.7,37.7,0,0,0-1.34,3.59,10.05,10.05,0,0,0-.56,2.72c0,.48,0,.69.09.69s.17-.3.3-.91Zm9.12-19.92a1.13,1.13,0,0,1-.69.21,4,4,0,0,1-1.08-.21,6.49,6.49,0,0,1-1.21-.52,4.26,4.26,0,0,1-1-.74A1.34,1.34,0,0,1,95,77a6,6,0,0,1,.39-1.56,15.51,15.51,0,0,1,1-2.29,8.61,8.61,0,0,1,1.34-2,1.84,1.84,0,0,1,1.34-.87,4.58,4.58,0,0,1,1.47.3,17.92,17.92,0,0,1,1.73.78,7.56,7.56,0,0,1,1.43,1c.39.35.6.61.6.87a.27.27,0,0,1-.09.21,25.18,25.18,0,0,0-2.33,2.51c-.65.78-1.52,1.86-2.55,3.25Zm-2.9-3.46a.16.16,0,0,1,0,.13.26.26,0,0,0,0,.21c.3,0,.47-.17.6-.51a3.39,3.39,0,0,1,.17-.48,1.6,1.6,0,0,0,.43-.48c.22-.34.43-.69.69-1.08s.43-.78.6-1.12a1.93,1.93,0,0,0,.26-.69c-.13,0-.3.17-.6.56s-.56.82-.91,1.3-.56,1-.82,1.38A1.83,1.83,0,0,0,96.44,75.65Z" fill="#292d42"/><path id="Path_609" data-name="Path 609" d="M117.44,81.14c0-.48.52-.69,1.34-.69a4.34,4.34,0,0,1,1.47.26,6.06,6.06,0,0,1,1.51.69,7.71,7.71,0,0,1,1.26.95,1.59,1.59,0,0,1,.52,1.08.17.17,0,0,1-.05.13.31.31,0,0,0,0,.21l-1.3,3.89c-.69,2.17-1.43,4.46-2.2,6.83s-1.64,4.71-2.59,7.05-2,4.54-3.07,6.65a29.47,29.47,0,0,1-3.72,5.58,16.08,16.08,0,0,1-4.49,3.8,10.53,10.53,0,0,1-5.36,1.43,5.93,5.93,0,0,1-2.72-.56,7.47,7.47,0,0,1-2-1.39,6.4,6.4,0,0,1-1.3-1.72,3.79,3.79,0,0,1-.44-1.65c0-.69.3-1.08,1-1.08a1.57,1.57,0,0,1,1.08.52,1.49,1.49,0,0,0,1.16.52,9.8,9.8,0,0,0,7.3-3.33,36.84,36.84,0,0,0,6.14-9.55,15.07,15.07,0,0,1-3.59,3.07,5.7,5.7,0,0,1-2.89.86,6.36,6.36,0,0,1-2.51-.47,4.88,4.88,0,0,1-1.69-1.3,6.18,6.18,0,0,1-1-1.86,7.44,7.44,0,0,1-.3-2.2,22.23,22.23,0,0,1,2-8.38c1.34-3.21,2.9-6.44,4.71-9.82a2,2,0,0,0,.35-.3,1,1,0,0,1,.6-.13,4.06,4.06,0,0,1,1,.13s.13.09.21.18a.36.36,0,0,0,.3.08,5.22,5.22,0,0,0,.74.39c.21.09.3.17.3.26a12.51,12.51,0,0,0-1.34,2c-.48.82-.87,1.6-1.3,2.42s-.74,1.6-1,2.29a6,6,0,0,0-.5,1.69c.52-1.08,1.08-2.29,1.73-3.63s1.34-2.64,2.07-3.85l.26-.43c.13-.17.26-.3.43-.3a3.92,3.92,0,0,0,1.26,1,1.37,1.37,0,0,1,.73,1,1.22,1.22,0,0,0,0,.6,1.09,1.09,0,0,1-.13.73,33.64,33.64,0,0,0-2.07,3.46c-.78,1.43-1.48,2.9-2.12,4.41a41.63,41.63,0,0,0-1.64,4.45,11.85,11.85,0,0,0-.7,3.59v.56a13,13,0,0,0,2.94-1.86,21.49,21.49,0,0,0,2.68-2.63,37.27,37.27,0,0,0,2.38-2.94c.73-1,1.38-1.95,1.94-2.81A92.38,92.38,0,0,0,117.44,81.14Zm-4.84,27.79a.86.86,0,0,0,.18-.43v-.13c-.22.34-.39.6-.52.82a6.37,6.37,0,0,1-.35.6c-.13.18-.21.3-.26.35l-1.21,1.6c-.52.69-1,1.34-1.6,2s-1.08,1.21-1.47,1.64-.69.69-.82.69a6.28,6.28,0,0,0,.78-.48,21.71,21.71,0,0,0,3.5-3.41,12.16,12.16,0,0,0,1.77-3.24Z" fill="#292d42"/><path id="Path_610" data-name="Path 610" d="M150.85,90.47c.56-.43,1.08-.78,1.55-1.08a2.26,2.26,0,0,1,1.17-.43c.3,0,.43.09.43.3a3.89,3.89,0,0,1-.69,1.47,34.81,34.81,0,0,1-5,6,11.25,11.25,0,0,1-6.09,2.94,15.81,15.81,0,0,1-4.58,3.59,11.39,11.39,0,0,1-5.45,1.34,10.39,10.39,0,0,1-4.23-.78,8.81,8.81,0,0,1-2.94-2A8.06,8.06,0,0,1,123.36,99a9.37,9.37,0,0,1-.56-3.2,16.3,16.3,0,0,1,.17-1.85,20.27,20.27,0,0,1,.57-2.68,11.7,11.7,0,0,1,.95-2.42c.39-.7.77-1.08,1.25-1.08a4.61,4.61,0,0,1,1.38.25,6.14,6.14,0,0,1,1.47.74,2.27,2.27,0,0,1-.09-.52v-.47a7.34,7.34,0,0,1,.78-3.25,9.21,9.21,0,0,1,2.08-2.72,10.94,10.94,0,0,1,3-1.86,10,10,0,0,1,7.69.17,8.58,8.58,0,0,1,2.86,2.17,7.81,7.81,0,0,1,1.6,2.94,10.5,10.5,0,0,1,.51,3.2,14.08,14.08,0,0,1-.6,4,17.54,17.54,0,0,1-1.68,4,7.82,7.82,0,0,0,1.51-1.17c.43-.43.91-1,1.34-1.46s.95-1,1.43-1.6S150.2,91,150.85,90.47Zm-25.15,0a.48.48,0,0,1,0-.26.57.57,0,0,0,0-.26.33.33,0,0,1,.09-.21c-.13,0-.26.17-.43.47a8.58,8.58,0,0,0-.52,1.26,15.41,15.41,0,0,0-.48,1.77,10.18,10.18,0,0,0-.21,2,12.05,12.05,0,0,0,.21,2.24,4.94,4.94,0,0,0,.74,1.86,9.22,9.22,0,0,1-.52-3.45,15.24,15.24,0,0,1,.3-3.16,8.49,8.49,0,0,1,.74-2.25Zm6,10.33a3.39,3.39,0,0,0,.78.09,7.22,7.22,0,0,0,3.67-1.26,12.75,12.75,0,0,1-3.59-2,13.42,13.42,0,0,1-2.81-3.2,8.49,8.49,0,0,0-.51,2.68,4.11,4.11,0,0,0,.64,2.34A3.48,3.48,0,0,0,131.7,100.8ZM138.1,97a20.13,20.13,0,0,0,1.12-1.9c.39-.82.78-1.69,1.13-2.64s.6-1.9.86-2.9a13.46,13.46,0,0,0,.35-2.76,5,5,0,0,0-.78-2.94,3,3,0,0,0-2.64-1.08,4.51,4.51,0,0,0-2.29.6,5.34,5.34,0,0,0-1.73,1.65A8.7,8.7,0,0,0,133,87.36a9.12,9.12,0,0,0-.39,2.64,8.28,8.28,0,0,0,.3,2.33,6.14,6.14,0,0,0,1,2.08,5.88,5.88,0,0,0,1.73,1.64,6,6,0,0,0,2.47,1Zm2.72-15.69a6,6,0,0,1,1.34.73,8.54,8.54,0,0,1,1.3,1.17c.39.43.69.87,1,1.25a2.13,2.13,0,0,1,.43,1.13,1.46,1.46,0,0,1,.17.3c0,.08.09.13.09.08a3.44,3.44,0,0,0-.35-1.25,6.79,6.79,0,0,0-.91-1.47A6.31,6.31,0,0,0,142.56,82a5.24,5.24,0,0,0-1.74-.69Z" fill="#292d42"/><path id="Path_611" data-name="Path 611" d="M27.52,85.29h.13v-.05C27.56,85.29,27.56,85.29,27.52,85.29Z" fill="#292d42"/><path id="Path_612" data-name="Path 612" d="M69,16a5.75,5.75,0,0,0-4.8,3.2,12.16,12.16,0,0,0-.78,2c-1.68,5.4-3.33,10.85-5,16.25A6.92,6.92,0,0,1,57.72,39a5.73,5.73,0,0,1-5.06,3,2.92,2.92,0,0,1-2.87-3,2.25,2.25,0,0,1,.07-.58c.13-.91.34-1.82.56-2.73l3.63-15.43c.56-2.38-.6-4.15-2.81-4.28a5.82,5.82,0,0,0-5.49,3.89c-.18.45-.34.92-.48,1.39C43.63,26.64,42,32,40.31,37.4c-.82,2.68-2.86,4.41-5.23,4.45S31.4,40.21,32,37.48L36,20a3,3,0,0,0-1.91-3.86,3,3,0,0,0-.94-.16,5.66,5.66,0,0,0-5.36,3.5c-2.08,5.62-4.06,11.24-6,16.9C20.13,41.16,18.48,46,17,50.84c-1.38,4.41-3.11,8.9-3.72,13.23-1.16,8.3,1.39,14.56,7.3,18.32l5.84-21.31v0a4.79,4.79,0,0,1,.21-.74c1.9-6.4,8.82-11.62,15.52-11.71,4.1-.08,8.21-.13,12.31-.21A14.93,14.93,0,0,0,68.91,36.23c.82-4.06,1.68-8.08,2.5-12.15a42.31,42.31,0,0,0,.87-5C72.42,17.17,71,16,69,16Z" fill="#292d42"/><path id="Path_613" data-name="Path 613" d="M44.11,73.18H30.8L27.56,85l0,.26c7.22,1.6,14.95-.48,22.73-6a34.16,34.16,0,0,0,14.3-22.09,2.3,2.3,0,0,0-1.48-2.89,2.21,2.21,0,0,0-1-.09c-6.74,0-13.49,0-20.23,0a8.6,8.6,0,0,0-8.16,8.34c.21,2.51,2,4.11,4.88,4.19s6,0,9.07,0l-1.21,4.5A2.52,2.52,0,0,1,44.11,73.18Z" fill="#292d42"/><path id="Path_614" data-name="Path 614" d="M27.52,85.24s.09,0,.09.05L27.56,85Z" fill="#292d42"/><path id="Path_615" data-name="Path 615" d="M20.65,82.43a13.26,13.26,0,0,0,6.87,2.86v-.05a21.34,21.34,0,0,1-3.59-1.12A17.54,17.54,0,0,1,20.65,82.43Z" fill="#292d42"/><path id="Path_616" data-name="Path 616" d="M20.56,82.39l-1.12,4.06Z" fill="#292d42"/><path id="Path_617" data-name="Path 617" d="M27.52,85.29a13.5,13.5,0,0,1-6.87-2.86s0,0-.09,0l-1.12,4.06-.69,2.6L18.23,91l-1,3.85c-1.17,4.23,1.38,7.69,5.62,7.69l4.84-17.2C27.56,85.33,27.56,85.29,27.52,85.29Z" fill="#292d42"/><path id="Path_618" data-name="Path 618" d="M20.65,82.43l-.09-.08C20.61,82.39,20.61,82.43,20.65,82.43Z" fill="#292d42"/></g></g></svg>